<svg xmlns="http://www.w3.org/2000/svg" viewBox="0 0 1000 1000"><path d="M785.3 215.3H298.7a52.7 52.7 0 1 1 0-105.3h433.8a30 30 0 1 0 0-60H299.3a115.1 115.1 0 0 0-114.5 105.9V835.1A115.1 115.1 0 0 0 299.7 950h485.6a30 30 0 0 0 30-30V244.8a30 30 0 0 0-30-29.5zm-252 59.9h79.9v189.4l-20-17.6a30 30 0 0 0-40 0l-20 17.6V275.2zm222 615.5h-456a55 55 0 0 1-55-55V260.2a115.8 115.8 0 0 0 54.6 14h174.4v255c0 11.7 6.8 22.4 17.4 27.4a32.3 32.3 0 0 0 32.6-4.4l50.8-43.2 51 43.2a30 30 0 0 0 49.3-23V275h81.5l-.6 615.7z"/><path d="M643.8 748H500.5a30 30 0 1 0 0 60h143.3a30 30 0 1 0 0-60zM405.2 748h-35.8a30 30 0 1 0 0 60h35.8a30 30 0 1 0 0-60z"/></svg>
