<svg xmlns="http://www.w3.org/2000/svg" viewBox="0 0 1000 1000"><path d="M253 875.9a450.3 450.3 0 0 0 607.9-106.4l9 60.9a35.8 35.8 0 0 0 35.3 30.3h5.2a35.3 35.3 0 0 0 29.9-40v-.3l-28.9-195.3-184.9 45.5a35.6 35.6 0 0 0 17 69.2l62.6-15.4a379.2 379.2 0 0 1-684.5-207.9 35.6 35.6 0 0 0-71.1 3.1A452.3 452.3 0 0 0 253 875.9zM93.9 356.2L287.6 314a35.6 35.6 0 1 0-15.1-69.4l-62.6 13.7a379 379 0 0 1 668.7 199.1c2 18 17.2 31.5 35.3 31.5h4a35.5 35.5 0 0 0 31.3-39.3 450.3 450.3 0 0 0-799.3-230.1l-7.3-60.4a35.9 35.9 0 0 0-71.1 8.5l22.4 188.6z"/></svg>
