<svg xmlns="http://www.w3.org/2000/svg" viewBox="0 0 1000 1000"><path d="M103.1 368.9a279 279 0 0 1 201.7 86.2l7.6 7.6 73.9-76.7-3.8-3.8a387.2 387.2 0 0 0-278.4-119.3 53 53 0 0 0-53 53 51.2 51.2 0 0 0 49.2 53h2.8zm834.2 292.5L779.2 546.9a29.9 29.9 0 0 0-47.3 24.6v60.6a277.8 277.8 0 0 1-192.2-85.2l-7.6-8.5-73.9 76.6 3.8 3.8a382 382 0 0 0 269.9 118.4v61.5a30 30 0 0 0 47.3 24.6l158.1-114.6a28.5 28.5 0 0 0 0-47.3z"/><path d="M731.8 368.9v60.6a30 30 0 0 0 47.3 24.6l158.1-114.6a30.3 30.3 0 0 0 0-48.3l-158-114.6a29.9 29.9 0 0 0-47.3 24.6v61.5c-102 2.5-199 45-269.9 118.4L304.8 545.9a279.8 279.8 0 0 1-201.7 86.2 53.1 53.1 0 0 0-.1 106.1h.1a387.2 387.2 0 0 0 278.4-119.3l157.2-164.8a285.6 285.6 0 0 1 193.1-85.2z"/></svg>
