<svg xmlns="http://www.w3.org/2000/svg" viewBox="0 0 1000 1000"><path d="M248.8 867.5a198.9 198.9 0 1 1 .2-397.8 198.9 198.9 0 0 1-.2 397.8zm0-344.4a145.6 145.6 0 0 0-145.6 145.6c0 79.9 65.7 145.6 145.6 145.6s145.6-65.7 145.6-145.6-65.7-145.6-145.6-145.6zm502.4 344.4a198.8 198.8 0 1 1 0-397.6 198.8 198.8 0 0 1 0 397.6zm0-344.4a145.6 145.6 0 0 0-145.6 145.6c0 79.9 65.7 145.6 145.6 145.6s145.6-65.7 145.6-145.6-65.7-145.6-145.6-145.6z"/><path d="M579 695.3H421c-14.2 0-26.6-12.4-26.6-26.6S406.8 642 421 642h158c14.2 0 26.6 12.4 26.6 26.6s-12.4 26.7-26.6 26.7zM122.8 574.6l-10.7-1.8c-14.2-5.3-19.5-21.3-14.2-35.5l122.5-285.8a184.7 184.7 0 0 1 172.2-118.9c14.2 0 26.6 12.4 26.6 26.6s-12.4 26.6-26.6 26.6A133.2 133.2 0 0 0 268.3 271L145.9 558.6a25.4 25.4 0 0 1-23.1 16zm754.4 0a26.8 26.8 0 0 1-24.9-16L729.9 272.8a131.5 131.5 0 0 0-124.3-87c-14.2 0-26.6-12.4-26.6-26.6s12.4-26.6 26.6-26.6c76.3 0 147.3 47.9 174 120.7l122.5 285.8c5.3 14.2 0 28.4-14.2 35.5h-10.7z"/></svg>
