<svg xmlns="http://www.w3.org/2000/svg" viewBox="0 0 1000 1000"><path d="M258.8 174.4s-75.6 5.8-119.1 20a19.2 19.2 0 0 0-13.2 18.3v67.9a587.7 587.7 0 0 0-66.4 30.2 19.2 19.2 0 0 0-10.2 17.1v478.7A19.1 19.1 0 0 0 78 823.4c66.2-35.2 134.2-55.6 201.4-55.1h.3c81.6 0 156.3 21.2 201.7 45.2 2.8 1.5 5.8 2.3 9 2.4h19.1c3.1 0 6.2-.9 9-2.4 45.5-24 120.1-45.5 201.7-45.5h.3c67.2-.5 135.2 19.9 201.4 55.1a19.2 19.2 0 0 0 28.1-16.7V327.6a19.1 19.1 0 1 0-38.3-.5v449c-61.9-29-126.3-46.8-191.5-46.4h-.3a518.1 518.1 0 0 0-158 25.1 369.5 369.5 0 0 1 177.4-44.3c39.8 0 72.1 6.2 108.9 18.3a19.2 19.2 0 0 0 25.2-18.2V212.7c0-8.3-5.3-15.7-13.2-18.3a373 373 0 0 0-120.9-20 410.5 410.5 0 0 0-239.4 77.8 410 410 0 0 0-239.4-77.8h-1.7zm1.8 38.3A370 370 0 0 1 480.8 286v449.4c-65.1-41-140-63.1-220.2-63.1-34.5 0-65 5.6-95.7 13.8V228c35.7-8.9 92.9-15 95.7-15.3zm478.8 0c34.9 0 64.3 5.7 95.7 15V686a362 362 0 0 0-95.7-13.8c-80.5 0-155 23.4-220.2 64.6V286.6c64-46.7 138.4-73.9 220.2-73.9zM126.6 322.2v388.4a19.1 19.1 0 0 0 25.1 17.9c36.8-12.1 69.1-18 108.9-18 64.7 0 124.8 15.4 178.6 44.6A516 516 0 0 0 280 730h-.3c-65.2-.5-129.6 17.4-191.5 46.4V340.2a662.2 662.2 0 0 1 38.4-18z"/></svg>
