<svg xmlns="http://www.w3.org/2000/svg" viewBox="0 0 1000 1000"><path d="M914.6 99L500 154 84 99a29.9 29.9 0 0 0-33.9 30.5v686A31 31 0 0 0 76.9 846l419.3 55.4h8L923.4 846a30.9 30.9 0 0 0 26.6-30.5v-686A31 31 0 0 0 914.6 99zm-803.2 65.4l358.2 47.2v624.3l-358.2-47.2V164.4zm777.2 624.3l-358 47.2V211.7l358-47.2v624.2z"/><path d="M616 548.4h4.5l190-27.8a31 31 0 0 0-8.8-61.4L611.5 487a30.7 30.7 0 1 0 4.5 61.4zM616 379.2h4.5l190-27.8a31 31 0 0 0-8.8-61.4l-190.2 27.8a30.7 30.7 0 1 0 4.5 61.4zM616 717.3h4.5l190-27.8a31 31 0 0 0-8.8-61.4l-190.2 27.8a30.8 30.8 0 1 0 4.5 61.4zM385.7 487.2l-190-27.8a31 31 0 1 0-9 61.4L377.3 548h4.5a30.8 30.8 0 0 0 4.3-61.3l-.4.5zM385.7 318l-190-27.8a31 31 0 1 0-9 61.4l190.6 27.2h4.5a30.8 30.8 0 0 0 4.3-61.3l-.4.5zM385.7 656.4l-190-27.8a31 31 0 1 0-9 61.4l190.6 27.2h4.5a30.8 30.8 0 0 0 4.3-61.3l-.4.5z"/></svg>
